<svg width="25" height="24" viewBox="0 0 25 24" fill="none" xmlns="http://www.w3.org/2000/svg">
<path d="M5.76829 6.70157C5.62055 6.70179 5.47621 6.65651 5.35423 6.57168C5.23225 6.48686 5.13835 6.36646 5.08486 6.2263C5.03137 6.08615 5.0208 5.9328 5.05454 5.78642C5.08828 5.64004 5.16475 5.50748 5.2739 5.40615C6.32823 4.42625 7.43856 3.46997 8.57346 2.56374C8.72696 2.45009 8.91778 2.40143 9.10579 2.42801C9.29381 2.45458 9.46438 2.55431 9.58164 2.70623C9.6989 2.85815 9.75372 3.05042 9.73456 3.24262C9.71541 3.43482 9.62378 3.61198 9.47893 3.73684C8.37134 4.62084 7.29379 5.55348 6.26131 6.50698C6.12675 6.63245 5.95079 6.7019 5.76829 6.70157Z" fill="#0DBFF2"/>
<path d="M0.73289 12.0181C0.593249 12.0182 0.456476 11.9778 0.338705 11.9014C0.220933 11.825 0.12708 11.716 0.0682164 11.5871C0.00935314 11.4582 -0.0120641 11.3149 0.00649295 11.1741C0.02505 11.0332 0.0828065 10.9007 0.172948 10.7922C1.24913 9.49674 2.40179 8.22774 3.59953 7.02267C3.73771 6.88369 3.92448 6.80628 4.11875 6.80745C4.31301 6.80862 4.49887 6.88829 4.63542 7.02892C4.77198 7.16955 4.84804 7.35964 4.84689 7.55735C4.84574 7.75506 4.76746 7.94421 4.62927 8.08318C3.46295 9.25768 2.33897 10.4919 1.29283 11.754C1.22414 11.837 1.13841 11.9037 1.04166 11.9493C0.944919 11.9949 0.839517 12.0184 0.73289 12.0181Z" fill="#0DBFF2"/>
<path d="M1.61924 14.3156C1.48077 14.3158 1.34505 14.2761 1.22787 14.201C1.11068 14.126 1.01682 14.0186 0.957193 13.8914C0.897562 13.7642 0.874605 13.6224 0.890987 13.4824C0.907368 13.3425 0.962416 13.2102 1.04974 13.1008C4.76674 8.46093 9.16514 4.43275 14.0896 1.15849C14.2526 1.04974 14.4513 1.01135 14.6422 1.05175C14.833 1.09215 15.0002 1.20804 15.107 1.37393C15.2139 1.53981 15.2516 1.7421 15.2119 1.93629C15.1722 2.13049 15.0584 2.30068 14.8954 2.40943C10.0939 5.59807 5.80546 9.52276 2.18192 14.0445C2.1134 14.129 2.02748 14.197 1.93024 14.2438C1.833 14.2907 1.72682 14.3152 1.61924 14.3156Z" fill="#1AE5CE"/>
<path d="M2.67081 16.3908C2.53354 16.3903 2.39916 16.3506 2.28295 16.2763C2.16674 16.2019 2.07338 16.0958 2.01347 15.9701C1.95357 15.8444 1.92953 15.7041 1.94409 15.5652C1.95865 15.4263 2.01123 15.2943 2.09584 15.1843C5.54928 10.738 9.63815 6.8437 14.2261 3.63121C14.3052 3.57545 14.3943 3.53609 14.4884 3.51537C14.5824 3.49466 14.6795 3.493 14.7742 3.51049C14.8689 3.52798 14.9592 3.56427 15.0401 3.6173C15.121 3.67033 15.1908 3.73905 15.2456 3.81955C15.3004 3.90004 15.3391 3.99073 15.3594 4.08644C15.3798 4.18215 15.3814 4.281 15.3642 4.37735C15.3471 4.47369 15.3114 4.56566 15.2593 4.64798C15.2072 4.7303 15.1397 4.80137 15.0606 4.85713C10.5925 7.98477 6.61044 11.7765 3.24714 16.1058C3.1788 16.1949 3.09133 16.2669 2.99144 16.3163C2.89154 16.3657 2.78187 16.3912 2.67081 16.3908Z" fill="#17BD3B"/>
<path d="M18.1677 5.16431C18.0084 5.16482 17.8534 5.11246 17.726 5.01517C17.5986 4.91788 17.5059 4.78098 17.4619 4.62522C17.4179 4.46946 17.425 4.30333 17.4821 4.15204C17.5392 4.00076 17.6433 3.87256 17.7785 3.78689C18.2701 3.47415 18.7741 3.16281 19.2807 2.86119C19.448 2.76846 19.6442 2.7456 19.8278 2.79747C20.0113 2.84934 20.1678 2.97186 20.2642 3.1391C20.3605 3.30634 20.3892 3.50518 20.344 3.69353C20.2989 3.88188 20.1835 4.04497 20.0223 4.14827C19.532 4.44155 19.0404 4.74455 18.561 5.05033C18.4434 5.12594 18.3068 5.16551 18.1677 5.16431Z" fill="#F2C60D"/>
<path d="M3.91366 18.2143C3.77699 18.2138 3.64317 18.1744 3.52731 18.1007C3.41145 18.0269 3.31815 17.9216 3.25794 17.7967C3.19773 17.6719 3.173 17.5324 3.18655 17.394C3.20009 17.2555 3.25137 17.1237 3.33459 17.0134C6.84644 12.4089 11.0477 8.39493 15.7845 5.11838C15.8638 5.06307 15.9531 5.02422 16.0472 5.00403C16.1413 4.98384 16.2384 4.98272 16.333 5.00073C16.4275 5.01873 16.5177 5.05551 16.5982 5.10897C16.6788 5.16242 16.7482 5.23151 16.8026 5.31228C16.8569 5.39304 16.8951 5.48391 16.915 5.5797C16.9348 5.67549 16.9359 5.77431 16.9182 5.87053C16.9005 5.96675 16.8644 6.05848 16.8118 6.14048C16.7593 6.22249 16.6914 6.29316 16.6121 6.34847C12.0018 9.53699 7.91262 13.4431 4.49409 17.9238C4.42581 18.0144 4.33792 18.0877 4.23725 18.1381C4.13658 18.1885 4.02584 18.2146 3.91366 18.2143Z" fill="#F2C60D"/>
<path d="M8.64993 15.8153C8.50797 15.8144 8.36934 15.7715 8.25092 15.6918C8.1325 15.6121 8.03939 15.4991 7.98295 15.3665C7.92651 15.234 7.90915 15.0876 7.93301 14.9451C7.95686 14.8027 8.02089 14.6704 8.1173 14.5644C11.6933 10.7211 15.7816 7.40762 20.2626 4.72088C20.3453 4.67087 20.4368 4.63792 20.532 4.62391C20.6272 4.60991 20.7242 4.61512 20.8174 4.63926C20.9106 4.66339 20.9982 4.70598 21.0753 4.76458C21.1523 4.82318 21.2173 4.89665 21.2664 4.9808C21.3155 5.06494 21.3479 5.15812 21.3617 5.255C21.3754 5.35188 21.3703 5.45056 21.3466 5.54543C21.3229 5.64029 21.281 5.72947 21.2235 5.80788C21.1659 5.88629 21.0937 5.95238 21.011 6.0024C16.648 8.61884 12.667 11.8447 9.18392 15.586C9.11489 15.6591 9.03194 15.7172 8.94013 15.7566C8.84832 15.796 8.74958 15.816 8.64993 15.8153Z" fill="#E53519"/>
<path d="M11.7666 15.5986C11.6206 15.5986 11.478 15.5542 11.357 15.4711C11.236 15.3881 11.1422 15.2701 11.0876 15.1323C11.033 14.9946 11.02 14.8433 11.0505 14.6981C11.081 14.5528 11.1534 14.4201 11.2585 14.317C14.2958 11.346 17.6573 8.73866 21.2774 6.54594C21.3601 6.49119 21.4528 6.45399 21.5499 6.43654C21.647 6.4191 21.7466 6.42177 21.8427 6.4444C21.9388 6.46704 22.0294 6.50917 22.1091 6.56827C22.1889 6.62737 22.2561 6.70223 22.3067 6.78838C22.3573 6.87452 22.3904 6.97018 22.4039 7.06962C22.4173 7.16906 22.411 7.27024 22.3851 7.36712C22.3593 7.464 22.3145 7.55457 22.2535 7.63343C22.1924 7.71229 22.1164 7.7778 22.0299 7.82606C18.5041 9.95997 15.2301 12.4978 12.2719 15.3901C12.136 15.523 11.955 15.5976 11.7666 15.5986Z" fill="#F20DA1"/>
<path d="M13.5857 16.7258C13.4388 16.7258 13.2952 16.6808 13.1737 16.5968C13.0522 16.5128 12.9582 16.3935 12.9041 16.2545C12.8499 16.1155 12.838 15.9632 12.8699 15.8172C12.9019 15.6713 12.9761 15.5384 13.0831 15.4359C15.9198 12.7319 19.0333 10.3452 22.37 8.3167C22.5363 8.22388 22.7316 8.20028 22.9147 8.25086C23.0978 8.30145 23.2545 8.42229 23.3519 8.58799C23.4493 8.75369 23.4798 8.95136 23.437 9.13948C23.3943 9.3276 23.2815 9.49153 23.1225 9.59683C19.8746 11.57 16.8441 13.8919 14.0828 16.5229C13.9481 16.6517 13.7706 16.7242 13.5857 16.7258Z" fill="#F20DA1"/>
<path d="M15.5769 17.689C15.4288 17.6893 15.2841 17.6438 15.1619 17.5587C15.0397 17.4735 14.9458 17.3526 14.8925 17.2119C14.8392 17.0713 14.8291 16.9175 14.8636 16.7709C14.898 16.6243 14.9753 16.4918 15.0852 16.3908C17.7319 13.9617 20.6101 11.8073 23.677 9.9596C23.7598 9.90571 23.8525 9.86933 23.9494 9.85262C24.0464 9.83592 24.1457 9.83923 24.2413 9.86235C24.337 9.88548 24.4271 9.92795 24.5064 9.98725C24.5856 10.0465 24.6523 10.1214 24.7025 10.2075C24.7527 10.2936 24.7854 10.389 24.7986 10.4882C24.8118 10.5874 24.8053 10.6882 24.7794 10.7848C24.7536 10.8813 24.7089 10.9716 24.6481 11.0503C24.5873 11.1289 24.5115 11.1943 24.4254 11.2425C21.4424 13.0395 18.6429 15.1347 16.0686 17.4972C15.9337 17.621 15.7585 17.6893 15.5769 17.689Z" fill="#AA0DF2"/>
<path d="M16.5971 19.5377C16.4492 19.5382 16.3047 19.4931 16.1825 19.4084C16.0603 19.3236 15.9662 19.2032 15.9125 19.063C15.8589 18.9228 15.8482 18.7694 15.8819 18.6228C15.9156 18.4763 15.9921 18.3436 16.1013 18.2422C18.5002 16.0141 21.0971 14.0175 23.8586 12.278C23.9404 12.2223 24.0324 12.1839 24.1291 12.1651C24.2258 12.1463 24.3252 12.1475 24.4214 12.1687C24.5176 12.1898 24.6087 12.2305 24.6892 12.2882C24.7696 12.3459 24.8378 12.4195 24.8898 12.5047C24.9417 12.5898 24.9762 12.6847 24.9913 12.7837C25.0064 12.8827 25.0018 12.9838 24.9777 13.0809C24.9536 13.1781 24.9106 13.2693 24.8511 13.3491C24.7916 13.429 24.717 13.4958 24.6316 13.5457C21.9466 15.2343 19.4223 17.1742 17.0915 19.3403C16.9568 19.4669 16.7804 19.5373 16.5971 19.5377Z" fill="#0F5EBD"/>
<path d="M19.1072 20.024C18.9571 20.0245 18.8105 19.978 18.6872 19.8907C18.5639 19.8035 18.47 19.6799 18.4181 19.5365C18.3663 19.3931 18.3589 19.237 18.3972 19.0893C18.4354 18.9415 18.5174 18.8093 18.6319 18.7106C19.1086 18.2936 19.603 17.8863 20.1001 17.4888C20.7256 16.987 21.3743 16.4908 22.0271 16.0169C22.1855 15.9114 22.3778 15.8724 22.5638 15.9079C22.7498 15.9435 22.9151 16.0508 23.0252 16.2075C23.1352 16.3642 23.1815 16.5581 23.1543 16.7487C23.1271 16.9394 23.0286 17.1119 22.8793 17.2303C22.2415 17.6987 21.6147 18.1727 21.0124 18.6591C20.5289 19.0469 20.0564 19.4458 19.5866 19.8461C19.453 19.9621 19.2828 20.0253 19.1072 20.024Z" fill="#1931E5"/>
<path d="M20.421 22.1027C20.421 21.5458 19.9774 21.0943 19.4302 21.0943C18.883 21.0943 18.4394 21.5458 18.4394 22.1027C18.4394 22.6597 18.883 23.1111 19.4302 23.1111C19.9774 23.1111 20.421 22.6597 20.421 22.1027Z" fill="#1931E5"/>
<path d="M19.4309 1.65894C19.4309 1.23367 19.0921 0.888916 18.6742 0.888916C18.2564 0.888916 17.9176 1.23367 17.9176 1.65894C17.9176 2.08421 18.2564 2.42896 18.6742 2.42896C19.0921 2.42896 19.4309 2.08421 19.4309 1.65894Z" fill="#17BD3B"/>
</svg>
