<svg width="22" height="22" viewBox="0 0 22 22" fill="none" xmlns="http://www.w3.org/2000/svg">
<path d="M9.16668 16.0874L7.54418 17.6641C7.11873 18.0895 6.54169 18.3286 5.94001 18.3286C5.33833 18.3286 4.7613 18.0895 4.33585 17.6641C3.91039 17.2386 3.67138 16.6616 3.67138 16.0599C3.67138 15.4582 3.91039 14.8812 4.33585 14.4558L8.49751 10.2849C8.90599 9.87512 9.45637 9.63801 10.0348 9.62266C10.6132 9.6073 11.1754 9.81487 11.605 10.2024L11.715 10.2941C11.8888 10.4643 12.1232 10.5584 12.3664 10.5559C12.6097 10.5533 12.8419 10.4542 13.0121 10.2803C13.1823 10.1065 13.2764 9.8722 13.2739 9.62895C13.2713 9.3857 13.1722 9.15344 12.9983 8.98326C12.9466 8.91636 12.8915 8.85212 12.8333 8.79076C12.0508 8.10996 11.0388 7.75203 10.0023 7.78948C8.96575 7.82692 7.98219 8.25694 7.25085 8.99242L3.03418 13.1633C2.31767 13.9432 1.93017 14.9697 1.95258 16.0285C1.975 17.0874 2.4056 18.0966 3.15448 18.8455C3.90335 19.5943 4.91258 20.0249 5.97141 20.0474C7.03023 20.0698 8.05679 19.6823 8.83668 18.9658L10.4225 17.4166C10.5791 17.2458 10.6652 17.022 10.6634 16.7903C10.6617 16.5585 10.5722 16.3361 10.4131 16.1676C10.2539 15.9992 10.0369 15.8973 9.80566 15.8824C9.57441 15.8675 9.3461 15.9408 9.16668 16.0874V16.0874ZM18.9658 3.03409C18.1947 2.26776 17.1517 1.83765 16.0646 1.83765C14.9775 1.83765 13.9345 2.26776 13.1633 3.03409L11.5775 4.58326C11.4209 4.75408 11.3349 4.97786 11.3366 5.20958C11.3384 5.44131 11.4278 5.66377 11.5869 5.8322C11.7461 6.00064 11.9631 6.10255 12.1944 6.11744C12.4256 6.13232 12.6539 6.05907 12.8333 5.91242L14.4192 4.33576C14.8446 3.91031 15.4217 3.67129 16.0233 3.67129C16.625 3.67129 17.2021 3.91031 17.6275 4.33576C18.053 4.76121 18.292 5.33825 18.292 5.93992C18.292 6.5416 18.053 7.11864 17.6275 7.54409L13.4658 11.7149C13.0574 12.1247 12.507 12.3618 11.9286 12.3772C11.3502 12.3925 10.788 12.185 10.3583 11.7974L10.2483 11.7058C10.0745 11.5356 9.84021 11.4414 9.59696 11.444C9.35371 11.4466 9.12144 11.5457 8.95126 11.7195C8.78108 11.8933 8.68692 12.1276 8.6895 12.3709C8.69208 12.6141 8.79119 12.8464 8.96501 13.0166C9.0316 13.0847 9.10199 13.149 9.17585 13.2091C9.9593 13.8878 10.9709 14.2444 12.0068 14.207C13.0427 14.1696 14.0259 13.7409 14.7583 13.0074L18.9292 8.83659C19.7004 8.07033 20.1371 7.03005 20.144 5.9429C20.1509 4.85575 19.7273 3.81004 18.9658 3.03409V3.03409Z" fill="#387FFE"/>
</svg>
