<svg width="36" height="36" viewBox="0 0 36 36" fill="none" xmlns="http://www.w3.org/2000/svg">
<path d="M30.705 3.00021H5.29497C5.00933 2.99624 4.72572 3.04858 4.46031 3.15424C4.19491 3.25989 3.95292 3.41679 3.74816 3.61598C3.5434 3.81516 3.37989 4.05274 3.26695 4.31512C3.15402 4.57751 3.09388 4.85958 3.08997 5.14521V30.8552C3.09388 31.1408 3.15402 31.4229 3.26695 31.6853C3.37989 31.9477 3.5434 32.1853 3.74816 32.3844C3.95292 32.5836 4.19491 32.7405 4.46031 32.8462C4.72572 32.9518 5.00933 33.0042 5.29497 33.0002H30.705C30.9906 33.0042 31.2742 32.9518 31.5396 32.8462C31.805 32.7405 32.047 32.5836 32.2518 32.3844C32.4565 32.1853 32.62 31.9477 32.733 31.6853C32.8459 31.4229 32.9061 31.1408 32.91 30.8552V5.14521C32.9061 4.85958 32.8459 4.57751 32.733 4.31512C32.62 4.05274 32.4565 3.81516 32.2518 3.61598C32.047 3.41679 31.805 3.25989 31.5396 3.15424C31.2742 3.04858 30.9906 2.99624 30.705 3.00021V3.00021ZM12.135 28.1102H7.63497V14.6102H12.135V28.1102ZM9.88497 12.7202C9.26436 12.7202 8.66917 12.4737 8.23034 12.0348C7.7915 11.596 7.54497 11.0008 7.54497 10.3802C7.54497 9.7596 7.7915 9.16442 8.23034 8.72558C8.66917 8.28674 9.26436 8.04021 9.88497 8.04021C10.2145 8.00284 10.5482 8.03549 10.8643 8.13603C11.1803 8.23658 11.4716 8.40274 11.719 8.62365C11.9663 8.84456 12.1643 9.11523 12.2998 9.41793C12.4353 9.72064 12.5053 10.0486 12.5053 10.3802C12.5053 10.7119 12.4353 11.0398 12.2998 11.3425C12.1643 11.6452 11.9663 11.9159 11.719 12.1368C11.4716 12.3577 11.1803 12.5238 10.8643 12.6244C10.5482 12.7249 10.2145 12.7576 9.88497 12.7202V12.7202ZM28.365 28.1102H23.865V20.8652C23.865 19.0502 23.22 17.8652 21.585 17.8652C21.079 17.8689 20.5862 18.0276 20.1732 18.32C19.7602 18.6123 19.4467 19.0242 19.275 19.5002C19.1576 19.8528 19.1067 20.2241 19.125 20.5952V28.0952H14.625C14.625 28.0952 14.625 15.8252 14.625 14.5952H19.125V16.5002C19.5338 15.7909 20.1283 15.2065 20.8446 14.81C21.5609 14.4135 22.3718 14.22 23.19 14.2502C26.19 14.2502 28.365 16.1852 28.365 20.3402V28.1102Z" fill="#8E8E8E"/>
</svg>
