<svg width="209" height="288" viewBox="0 0 209 288" fill="none" xmlns="http://www.w3.org/2000/svg">
<path d="M95 99.7812V114.625L102.714 124L113 114.625V99L95 99.7812Z" fill="#D9D9D9"/>
<path d="M139 59.2359C139 85.1933 117 102.236 100.5 104.236C78 99.2359 65 85.1933 65 59.2359C65 13.7359 79.237 29.2359 100.5 29.2359C121.763 29.2359 139 33.2786 139 59.2359Z" fill="#D9D9D9"/>
<path d="M51.9886 48.5603C52.5343 48.6116 53.7394 48.7764 55.4671 49.0126C69.6871 50.9572 119.315 50.7438 128.169 38.9256C128.169 38.9256 132.055 47.0273 133.774 52.4985C136.158 60.0892 137.482 72.5315 137.482 72.5315C140.482 66.5315 142.716 60.1571 143.708 53.6437C145.089 44.5755 143.482 25.0315 139.982 17.5315C135.982 13.5315 131.554 9.86256 126.169 7.53151C106.607 -0.937142 90.9819 -1.46847 73.9819 2.03152C69.4819 3.53153 63.4176 5.96564 59.8897 8.17187C55.5514 10.8849 52.2438 12.5788 48.1405 15.5182C42.8424 19.3135 37.0504 22.4177 33 27.2684C41.7673 27.7699 49.7236 32.8037 58.3371 34.5122L51.9886 48.5603Z" fill="black"/>
<circle cx="109.5" cy="64.1907" r="3.5" fill="#040404"/>
<circle cx="85.5" cy="65.1907" r="3.5" fill="#040404"/>
<path d="M110.863 83.3733C111.007 86.9182 104.607 91.5068 100.193 91.6867C95.7779 91.8666 89.0255 87.8141 88.8811 84.2691C88.8555 83.6417 95.3927 82.4145 99.8073 82.2346C104.222 82.0547 110.817 82.2462 110.863 83.3733Z" fill="black"/>
<path d="M92.9822 110L102.298 116.96L114.524 110C124.034 110.58 145.149 112.784 153.533 116.96C161.917 121.136 168.671 134.94 171 141.32L153.533 151.76L141.889 141.32V175H70.2756V141.32L59.7956 151.76L40 141.32C41.5526 135.52 46.7538 122.528 55.1378 116.96C63.5218 111.392 83.8607 110 92.9822 110Z" fill="black" stroke="black" stroke-linecap="round"/>
<path d="M204 157H7L20.6332 278H190.367L204 157Z" fill="#D9D9D9"/>
<path d="M88.3333 194L69.0663 213.818C66.8023 216.146 66.8022 219.854 69.0663 222.182L88.3333 242M105.333 194V242M122.667 194L141.934 213.818C144.198 216.146 144.198 219.854 141.934 222.182L122.667 242" stroke="white" stroke-width="5" stroke-linecap="round"/>
<path d="M59 152L37.5 192L24.5 185.5L40 142L59 152Z" fill="#D9D9D9"/>
<path d="M153 152L169.5 185.5L183.5 182L172 142L153 152Z" fill="#D9D9D9"/>
<rect y="281" width="209" height="7" fill="#D9D9D9"/>
<path d="M111 73.0767C111 73.0767 113.133 72.9055 114.5 72.5C115.867 72.0945 118 71 118 71M112.5 72.442L113 73.5M116.5 71L116.769 72.0188" stroke="#F3F3F3" stroke-width="0.5" stroke-linecap="round"/>
</svg>
