<svg width="36" height="36" viewBox="0 0 36 36" fill="none" xmlns="http://www.w3.org/2000/svg">
<path d="M18 2.99977C16.0491 2.92893 14.104 3.25346 12.2817 3.95383C10.4595 4.65421 8.7977 5.71596 7.39642 7.0752C5.99513 8.43445 4.88328 10.0631 4.12774 11.8632C3.3722 13.6633 2.9886 15.5976 3 17.5498C2.97486 19.5765 3.38193 21.5854 4.19408 23.4425C5.00624 25.2996 6.20483 26.9623 7.71 28.3198C7.8295 28.4262 7.92679 28.5552 7.9963 28.6994C8.0658 28.8435 8.10614 29 8.115 29.1598V31.8298C8.12322 32.0266 8.17918 32.2185 8.27805 32.3889C8.37692 32.5592 8.51574 32.703 8.68254 32.8078C8.84934 32.9126 9.03913 32.9753 9.23554 32.9905C9.43195 33.0056 9.6291 32.9728 9.81 32.8948L12.81 31.5898C13.0662 31.493 13.3488 31.493 13.605 31.5898C15.0232 31.9725 16.4861 32.1642 17.955 32.1598C21.8219 32.1657 25.5327 30.6354 28.2712 27.9053C31.0097 25.1752 32.5515 21.4691 32.5575 17.6023C32.5635 13.7354 31.0331 10.0246 28.303 7.28606C25.573 4.54756 21.8669 3.00574 18 2.99977V2.99977ZM27 14.1898L22.605 21.1798C22.4392 21.4429 22.2207 21.6689 21.9632 21.8433C21.7058 22.0178 21.4149 22.137 21.109 22.1934C20.8032 22.2497 20.4889 22.2421 20.1862 22.1709C19.8834 22.0997 19.5987 21.9665 19.35 21.7798L15.84 19.1548C15.6842 19.0379 15.4947 18.9748 15.3 18.9748C15.1053 18.9748 14.9158 19.0379 14.76 19.1548L10.02 22.7548C9.88799 22.8566 9.72417 22.9083 9.55763 22.9008C9.3911 22.8933 9.23261 22.827 9.11032 22.7137C8.98803 22.6004 8.90985 22.4474 8.88965 22.2819C8.86945 22.1164 8.90855 21.9492 9 21.8098L13.395 14.8198C13.5608 14.5566 13.7793 14.3307 14.0368 14.1562C14.2942 13.9817 14.5851 13.8626 14.891 13.8062C15.1968 13.7498 15.5111 13.7574 15.8138 13.8286C16.1166 13.8998 16.4013 14.033 16.65 14.2198L20.16 16.8448C20.3158 16.9616 20.5053 17.0248 20.7 17.0248C20.8947 17.0248 21.0842 16.9616 21.24 16.8448L25.98 13.2448C26.112 13.143 26.2758 13.0912 26.4424 13.0987C26.6089 13.1063 26.7674 13.1726 26.8897 13.2859C27.012 13.3992 27.0902 13.5521 27.1103 13.7176C27.1305 13.8831 27.0914 14.0504 27 14.1898Z" fill="#8E8E8E"/>
</svg>
